<?xml version="1.0" encoding="utf-8"?>
<!-- Generator: Adobe Illustrator 23.0.2, SVG Export Plug-In . SVG Version: 6.00 Build 0)  -->
<svg version="1.1" xmlns="http://www.w3.org/2000/svg" xmlns:xlink="http://www.w3.org/1999/xlink" x="0px" y="0px"
	 viewBox="0 0 500 500" style="enable-background:new 0 0 500 500;" xml:space="preserve">
<style type="text/css">
	.st0{fill:#FFFFFF;}
</style>
<g id="BACKGROUND">
	<rect class="st0" width="500" height="500"/>
</g>
<g id="OBJECTS">
	<g>
		<g>
			<g>
				<g>
					<path d="M188.23,229.45c6.92,18.44,13.83,36.88,20.75,55.32c0.24,0.63,0.74,1.1,1.45,1.1c26.77,0,53.55,0,80.32,0
						c0.72,0,1.19-0.48,1.45-1.1c7.45-18.44,14.89-36.88,22.34-55.32c0.37-0.92-0.56-1.9-1.45-1.9c-36.02,0-72.04,0-108.06,0
						c-5.12,0-10.23,0-15.35,0c-1.93,0-1.93,3,0,3c36.02,0,72.04,0,108.06,0c5.12,0,10.23,0,15.35,0c-0.48-0.63-0.96-1.27-1.45-1.9
						c-7.45,18.44-14.89,36.88-22.34,55.32c0.48-0.37,0.96-0.73,1.45-1.1c-26.77,0-53.55,0-80.32,0c0.48,0.37,0.96,0.73,1.45,1.1
						c-6.92-18.44-13.83-36.88-20.75-55.32C190.45,226.86,187.55,227.63,188.23,229.45z"/>
				</g>
			</g>
			<g>
				<g>
					<path d="M191.18,229.05c-0.31-5.99,1.87-12.43,5.35-17.23c8.54-11.79,30.82-17.42,41.53-5.37c1.28,1.45,3.4-0.68,2.12-2.12
						c-10.92-12.29-33.26-8.11-43.56,2.72c-5.38,5.66-8.84,14.1-8.43,22C188.28,230.97,191.28,230.98,191.18,229.05L191.18,229.05z"
						/>
				</g>
			</g>
			<g>
				<g>
					<path d="M314.53,229.45c1.37-7.65-0.5-16.37-5.31-22.49c-9.98-12.71-33.03-14.9-44.24-2.63c-1.3,1.42,0.82,3.55,2.12,2.12
						c10.6-11.6,33.2-8.77,41.24,4.49c3.06,5.05,4.33,11.86,3.29,17.71C311.3,230.54,314.19,231.35,314.53,229.45L314.53,229.45z"/>
				</g>
			</g>
			<g>
				<g>
					<path d="M221.02,198.55c5.1-12.15,19.34-21.28,33.47-20.13c11.89,0.97,22.72,9.61,27.41,20.49c0.76,1.77,3.35,0.24,2.59-1.51
						c-5.3-12.3-17.9-21.54-31.31-22.06c-14.87-0.58-29.26,8.66-35.04,22.42C217.38,199.53,220.28,200.31,221.02,198.55
						L221.02,198.55z"/>
				</g>
			</g>
			<g>
				<g>
					<path d="M249.88,239.79c0,10.04,0,20.09,0,30.13c0,1.93,3,1.93,3,0c0-10.04,0-20.09,0-30.13
						C252.88,237.86,249.88,237.85,249.88,239.79L249.88,239.79z"/>
				</g>
			</g>
			<g>
				<g>
					<path d="M267.34,271.04c5.09-8.05,10.18-16.1,15.26-24.15c1.03-1.64-1.56-3.14-2.59-1.51c-5.09,8.05-10.18,16.1-15.26,24.15
						C263.72,271.17,266.31,272.67,267.34,271.04L267.34,271.04z"/>
				</g>
			</g>
			<g>
				<g>
					<path d="M233.86,269.53c-5.09-8.05-10.18-16.1-15.26-24.15c-1.03-1.63-3.63-0.12-2.59,1.51c5.09,8.05,10.18,16.1,15.26,24.15
						C232.3,272.67,234.9,271.17,233.86,269.53L233.86,269.53z"/>
				</g>
			</g>
		</g>
		<g>
			<path d="M64.32,366.51c0.17,0,0.32,0.06,0.44,0.18l1.04,1.11c-0.76,0.81-1.59,1.54-2.48,2.19c-0.9,0.65-1.88,1.2-2.94,1.66
				c-1.06,0.46-2.23,0.81-3.49,1.06c-1.27,0.25-2.66,0.38-4.18,0.38c-2.54,0-4.86-0.44-6.97-1.33c-2.11-0.89-3.92-2.15-5.43-3.78
				c-1.51-1.63-2.69-3.6-3.53-5.91c-0.85-2.31-1.27-4.88-1.27-7.71c0-2.78,0.44-5.31,1.31-7.61s2.1-4.26,3.67-5.91
				c1.58-1.65,3.47-2.92,5.67-3.83s4.63-1.36,7.28-1.36c1.33,0,2.54,0.1,3.65,0.3c1.1,0.2,2.13,0.48,3.09,0.85
				c0.96,0.37,1.86,0.83,2.7,1.38c0.84,0.55,1.67,1.19,2.48,1.92l-0.8,1.16c-0.14,0.21-0.35,0.31-0.65,0.31
				c-0.16,0-0.35-0.09-0.59-0.27c-0.24-0.18-0.55-0.41-0.92-0.67c-0.37-0.27-0.82-0.56-1.35-0.88c-0.53-0.32-1.15-0.61-1.88-0.88
				c-0.72-0.27-1.56-0.49-2.51-0.67c-0.95-0.18-2.03-0.27-3.23-0.27c-2.23,0-4.27,0.38-6.13,1.15s-3.47,1.86-4.81,3.29
				c-1.35,1.42-2.39,3.15-3.14,5.17c-0.75,2.03-1.13,4.3-1.13,6.82c0,2.59,0.37,4.9,1.11,6.93c0.74,2.04,1.77,3.76,3.08,5.16
				c1.31,1.41,2.86,2.48,4.64,3.23s3.72,1.12,5.81,1.12c1.31,0,2.48-0.09,3.51-0.26c1.03-0.17,1.97-0.43,2.83-0.78
				c0.86-0.34,1.66-0.77,2.41-1.27c0.74-0.5,1.48-1.09,2.2-1.76c0.09-0.07,0.17-0.12,0.25-0.17S64.21,366.51,64.32,366.51z"/>
			<path d="M101.68,372.66h-2.04c-0.24,0-0.44-0.06-0.6-0.19c-0.16-0.13-0.28-0.3-0.36-0.5l-4.32-10.63H76.37l-4.29,10.63
				c-0.07,0.19-0.19,0.35-0.36,0.49c-0.17,0.14-0.38,0.21-0.62,0.21h-2.02l14.98-36.61h2.64L101.68,372.66z M77.17,359.36h16.4
				l-7.48-18.5c-0.12-0.29-0.24-0.62-0.36-1s-0.24-0.76-0.36-1.18c-0.12,0.41-0.24,0.81-0.36,1.18s-0.24,0.71-0.36,1.02
				L77.17,359.36z"/>
			<path d="M110.89,352.95h2.17c0.33,0,0.61-0.01,0.85-0.04c0.24-0.03,0.46-0.08,0.66-0.16c0.2-0.08,0.38-0.18,0.56-0.3
				c0.17-0.12,0.35-0.28,0.54-0.47l14.77-15.19c0.28-0.28,0.53-0.47,0.76-0.58s0.52-0.17,0.87-0.17h2.15l-15.99,16.43
				c-0.33,0.34-0.62,0.61-0.87,0.8c-0.25,0.19-0.53,0.35-0.84,0.47c0.36,0.1,0.69,0.26,0.97,0.48s0.57,0.5,0.87,0.84l16.87,17.59
				h-2.15c-0.45,0-0.77-0.06-0.96-0.19c-0.19-0.13-0.39-0.3-0.6-0.5l-15.5-15.83c-0.19-0.19-0.36-0.35-0.52-0.49
				c-0.16-0.14-0.33-0.25-0.53-0.35c-0.2-0.09-0.44-0.16-0.71-0.21c-0.28-0.04-0.62-0.06-1.03-0.06h-2.35v17.65h-2.64V336h2.64
				V352.95z"/>
			<path d="M163.56,336.05v2.2h-19.28v14.8h16.04v2.15h-16.04v15.26h19.28v2.2h-21.94v-36.61H163.56z"/>
			<path d="M189.93,340.5c-0.16,0.29-0.38,0.44-0.67,0.44c-0.23,0-0.52-0.16-0.87-0.48c-0.35-0.32-0.84-0.67-1.44-1.06
				s-1.36-0.75-2.27-1.07c-0.91-0.33-2.03-0.49-3.36-0.49s-2.5,0.19-3.52,0.57c-1.01,0.38-1.86,0.9-2.54,1.55s-1.2,1.41-1.56,2.28
				c-0.35,0.86-0.53,1.77-0.53,2.72c0,1.24,0.26,2.27,0.79,3.08s1.22,1.5,2.09,2.07c0.86,0.57,1.84,1.05,2.94,1.44
				c1.1,0.39,2.22,0.77,3.38,1.15c1.16,0.38,2.28,0.8,3.38,1.25c1.1,0.46,2.08,1.03,2.94,1.72c0.86,0.69,1.56,1.54,2.09,2.55
				c0.53,1.01,0.79,2.26,0.79,3.76c0,1.54-0.26,2.98-0.79,4.33s-1.29,2.53-2.29,3.53c-1,1-2.23,1.79-3.67,2.37
				c-1.45,0.58-3.1,0.87-4.97,0.87c-2.42,0-4.49-0.43-6.24-1.28c-1.74-0.85-3.27-2.02-4.58-3.5l0.72-1.14
				c0.21-0.26,0.45-0.39,0.72-0.39c0.16,0,0.35,0.1,0.6,0.31s0.54,0.46,0.88,0.76c0.35,0.3,0.76,0.63,1.24,0.98
				c0.48,0.35,1.05,0.68,1.68,0.98c0.64,0.3,1.37,0.56,2.2,0.76c0.83,0.21,1.77,0.31,2.82,0.31c1.45,0,2.75-0.22,3.89-0.66
				c1.14-0.44,2.1-1.04,2.89-1.8c0.79-0.76,1.39-1.66,1.8-2.7c0.41-1.04,0.62-2.16,0.62-3.35c0-1.29-0.26-2.36-0.79-3.2
				c-0.53-0.84-1.22-1.53-2.09-2.1c-0.86-0.56-1.84-1.03-2.94-1.41c-1.1-0.38-2.22-0.75-3.38-1.11s-2.28-0.77-3.38-1.22
				c-1.1-0.45-2.08-1.02-2.94-1.72s-1.56-1.57-2.09-2.61c-0.53-1.04-0.79-2.35-0.79-3.92c0-1.22,0.23-2.41,0.7-3.54
				c0.47-1.14,1.15-2.14,2.05-3.01c0.9-0.87,2.01-1.57,3.33-2.1c1.32-0.53,2.83-0.79,4.52-0.79c1.9,0,3.6,0.3,5.12,0.91
				c1.51,0.6,2.89,1.53,4.13,2.77L189.93,340.5z"/>
			<path d="M220.85,335.64c1.16,0,2.25,0.2,3.29,0.59c1.03,0.4,1.94,0.93,2.7,1.6c0.77,0.67,1.38,1.45,1.84,2.34s0.7,1.82,0.74,2.78
				c-0.24,0.05-0.46,0.1-0.65,0.16c-0.4,0.09-0.71,0.13-0.93,0.13c-0.14,0-0.27-0.05-0.39-0.16s-0.21-0.25-0.26-0.44
				c-0.12-0.45-0.33-0.97-0.62-1.55c-0.29-0.59-0.69-1.14-1.19-1.66c-0.5-0.52-1.13-0.96-1.88-1.32c-0.75-0.36-1.63-0.54-2.65-0.54
				c-1.03,0-1.98,0.16-2.82,0.48c-0.85,0.32-1.57,0.77-2.17,1.35s-1.07,1.26-1.41,2.06c-0.34,0.79-0.5,1.67-0.5,2.61
				c0,1.42,0.36,2.77,1.09,4.06c0.72,1.29,1.85,2.68,3.36,4.17l11.54,11.38c0.78-1.24,1.39-2.54,1.85-3.88
				c0.46-1.34,0.75-2.65,0.89-3.91c0.03-0.22,0.1-0.4,0.21-0.53c0.1-0.13,0.26-0.19,0.47-0.19h1.42c-0.04,1.62-0.34,3.29-0.92,5.01
				c-0.58,1.72-1.4,3.36-2.47,4.93l7.71,7.55h-2.3c-0.31,0-0.57-0.03-0.76-0.1c-0.2-0.07-0.43-0.22-0.69-0.47l-5.3-5.2
				c-0.78,0.9-1.63,1.72-2.56,2.48c-0.93,0.76-1.94,1.41-3.03,1.95c-1.09,0.54-2.25,0.97-3.48,1.28c-1.23,0.31-2.53,0.47-3.89,0.47
				c-1.29,0-2.57-0.22-3.83-0.65c-1.26-0.43-2.38-1.07-3.38-1.9c-0.99-0.84-1.79-1.86-2.41-3.08c-0.61-1.22-0.92-2.6-0.92-4.15
				c0-1.24,0.22-2.43,0.67-3.56c0.45-1.13,1.06-2.16,1.84-3.1c0.78-0.94,1.7-1.78,2.77-2.52s2.23-1.35,3.47-1.81
				c-1.23-1.38-2.14-2.72-2.76-4.02c-0.61-1.3-0.92-2.69-0.92-4.18c0-1.21,0.22-2.32,0.66-3.35c0.44-1.03,1.06-1.92,1.88-2.68
				c0.81-0.76,1.78-1.35,2.91-1.79C218.18,335.85,219.45,335.64,220.85,335.64z M209.05,363.14c0,1.33,0.25,2.48,0.76,3.47
				c0.51,0.98,1.17,1.81,1.98,2.47c0.81,0.66,1.71,1.16,2.7,1.49c0.99,0.33,1.97,0.49,2.94,0.49c1.21,0,2.35-0.14,3.43-0.41
				c1.08-0.28,2.09-0.66,3.03-1.15c0.94-0.49,1.8-1.07,2.59-1.75c0.78-0.67,1.5-1.41,2.16-2.22l-11.88-11.67
				c-0.1-0.09-0.2-0.18-0.28-0.29c-1.14,0.48-2.17,1.06-3.09,1.73c-0.92,0.67-1.7,1.42-2.34,2.24c-0.64,0.82-1.13,1.7-1.48,2.65
				S209.05,362.12,209.05,363.14z"/>
			<path d="M281.6,366.51c0.17,0,0.32,0.06,0.44,0.18l1.04,1.11c-0.76,0.81-1.59,1.54-2.48,2.19c-0.9,0.65-1.88,1.2-2.94,1.66
				c-1.06,0.46-2.22,0.81-3.49,1.06c-1.27,0.25-2.66,0.38-4.18,0.38c-2.54,0-4.86-0.44-6.97-1.33c-2.11-0.89-3.92-2.15-5.43-3.78
				c-1.51-1.63-2.69-3.6-3.53-5.91c-0.84-2.31-1.27-4.88-1.27-7.71c0-2.78,0.44-5.31,1.31-7.61s2.1-4.26,3.67-5.91
				c1.58-1.65,3.47-2.92,5.67-3.83s4.63-1.36,7.28-1.36c1.33,0,2.54,0.1,3.65,0.3s2.13,0.48,3.09,0.85c0.96,0.37,1.86,0.83,2.7,1.38
				c0.84,0.55,1.67,1.19,2.48,1.92l-0.8,1.16c-0.14,0.21-0.35,0.31-0.65,0.31c-0.16,0-0.35-0.09-0.6-0.27s-0.55-0.41-0.92-0.67
				c-0.37-0.27-0.82-0.56-1.35-0.88c-0.53-0.32-1.15-0.61-1.88-0.88s-1.56-0.49-2.51-0.67c-0.95-0.18-2.03-0.27-3.23-0.27
				c-2.23,0-4.27,0.38-6.13,1.15c-1.86,0.77-3.47,1.86-4.81,3.29c-1.35,1.42-2.39,3.15-3.14,5.17c-0.75,2.03-1.13,4.3-1.13,6.82
				c0,2.59,0.37,4.9,1.11,6.93c0.74,2.04,1.77,3.76,3.08,5.16c1.31,1.41,2.86,2.48,4.64,3.23s3.72,1.12,5.81,1.12
				c1.31,0,2.48-0.09,3.51-0.26c1.03-0.17,1.97-0.43,2.83-0.78c0.86-0.34,1.66-0.77,2.41-1.27c0.74-0.5,1.47-1.09,2.2-1.76
				c0.09-0.07,0.17-0.12,0.25-0.17C281.4,366.53,281.49,366.51,281.6,366.51z"/>
			<path d="M324.05,354.35c0,2.83-0.42,5.39-1.27,7.7c-0.85,2.3-2.04,4.27-3.57,5.9s-3.37,2.89-5.51,3.78
				c-2.14,0.89-4.51,1.33-7.12,1.33c-2.57,0-4.92-0.44-7.06-1.33s-3.98-2.15-5.51-3.78c-1.54-1.63-2.73-3.6-3.58-5.9
				c-0.85-2.3-1.28-4.87-1.28-7.7c0-2.81,0.43-5.37,1.28-7.67c0.85-2.3,2.05-4.27,3.58-5.9c1.53-1.63,3.37-2.89,5.51-3.79
				s4.49-1.35,7.06-1.35c2.6,0,4.98,0.44,7.12,1.33c2.14,0.89,3.98,2.15,5.51,3.79s2.72,3.61,3.57,5.91
				C323.63,348.98,324.05,351.53,324.05,354.35z M321.31,354.35c0-2.55-0.35-4.85-1.06-6.88c-0.71-2.04-1.7-3.76-2.99-5.17
				c-1.29-1.41-2.83-2.5-4.64-3.25c-1.81-0.75-3.82-1.12-6.03-1.12c-2.17,0-4.16,0.38-5.96,1.12c-1.8,0.75-3.36,1.83-4.66,3.25
				c-1.3,1.41-2.31,3.14-3.03,5.17s-1.07,4.33-1.07,6.88c0,2.57,0.36,4.87,1.07,6.9c0.72,2.03,1.72,3.75,3.03,5.16
				c1.3,1.42,2.85,2.49,4.66,3.23c1.8,0.74,3.79,1.11,5.96,1.11c2.21,0,4.22-0.37,6.03-1.11c1.81-0.74,3.36-1.82,4.64-3.23
				c1.28-1.41,2.28-3.13,2.99-5.16C320.96,359.21,321.31,356.92,321.31,354.35z"/>
			<path d="M365.32,354.35c0,2.83-0.42,5.39-1.27,7.7c-0.85,2.3-2.04,4.27-3.57,5.9s-3.37,2.89-5.51,3.78
				c-2.14,0.89-4.51,1.33-7.12,1.33c-2.57,0-4.92-0.44-7.06-1.33s-3.98-2.15-5.51-3.78c-1.54-1.63-2.73-3.6-3.58-5.9
				c-0.85-2.3-1.28-4.87-1.28-7.7c0-2.81,0.43-5.37,1.28-7.67c0.85-2.3,2.05-4.27,3.58-5.9c1.53-1.63,3.37-2.89,5.51-3.79
				s4.49-1.35,7.06-1.35c2.6,0,4.98,0.44,7.12,1.33c2.14,0.89,3.98,2.15,5.51,3.79s2.72,3.61,3.57,5.91
				C364.9,348.98,365.32,351.53,365.32,354.35z M362.58,354.35c0-2.55-0.35-4.85-1.06-6.88c-0.71-2.04-1.7-3.76-2.99-5.17
				c-1.29-1.41-2.83-2.5-4.64-3.25c-1.81-0.75-3.82-1.12-6.03-1.12c-2.17,0-4.16,0.38-5.96,1.12c-1.8,0.75-3.36,1.83-4.66,3.25
				c-1.3,1.41-2.31,3.14-3.03,5.17s-1.07,4.33-1.07,6.88c0,2.57,0.36,4.87,1.07,6.9c0.72,2.03,1.72,3.75,3.03,5.16
				c1.3,1.42,2.85,2.49,4.66,3.23c1.8,0.74,3.79,1.11,5.96,1.11c2.21,0,4.22-0.37,6.03-1.11c1.81-0.74,3.36-1.82,4.64-3.23
				c1.28-1.41,2.28-3.13,2.99-5.16C362.22,359.21,362.58,356.92,362.58,354.35z"/>
			<path d="M377.35,352.95h2.17c0.33,0,0.61-0.01,0.85-0.04c0.24-0.03,0.46-0.08,0.66-0.16c0.2-0.08,0.38-0.18,0.56-0.3
				c0.17-0.12,0.35-0.28,0.54-0.47l14.77-15.19c0.28-0.28,0.53-0.47,0.76-0.58s0.52-0.17,0.87-0.17h2.15l-15.99,16.43
				c-0.33,0.34-0.62,0.61-0.87,0.8c-0.25,0.19-0.53,0.35-0.84,0.47c0.36,0.1,0.69,0.26,0.97,0.48c0.29,0.22,0.57,0.5,0.87,0.84
				l16.87,17.59h-2.15c-0.45,0-0.77-0.06-0.96-0.19c-0.19-0.13-0.39-0.3-0.6-0.5l-15.5-15.83c-0.19-0.19-0.36-0.35-0.52-0.49
				c-0.16-0.14-0.33-0.25-0.53-0.35c-0.2-0.09-0.44-0.16-0.71-0.21c-0.28-0.04-0.62-0.06-1.04-0.06h-2.35v17.65h-2.64V336h2.64
				V352.95z"/>
			<path d="M411.71,372.66h-2.67v-36.61h2.67V372.66z"/>
			<path d="M445.5,336.05v2.2h-19.28v14.8h16.04v2.15h-16.04v15.26h19.28v2.2h-21.94v-36.61H445.5z"/>
			<path d="M471.86,340.5c-0.16,0.29-0.38,0.44-0.67,0.44c-0.22,0-0.51-0.16-0.87-0.48c-0.36-0.32-0.83-0.67-1.44-1.06
				c-0.61-0.39-1.36-0.75-2.27-1.07c-0.91-0.33-2.03-0.49-3.36-0.49s-2.5,0.19-3.52,0.57c-1.01,0.38-1.86,0.9-2.54,1.55
				s-1.2,1.41-1.56,2.28c-0.36,0.86-0.53,1.77-0.53,2.72c0,1.24,0.26,2.27,0.79,3.08s1.22,1.5,2.09,2.07
				c0.86,0.57,1.84,1.05,2.94,1.44c1.1,0.39,2.22,0.77,3.38,1.15c1.16,0.38,2.28,0.8,3.38,1.25s2.08,1.03,2.94,1.72
				c0.86,0.69,1.56,1.54,2.09,2.55c0.53,1.01,0.79,2.26,0.79,3.76c0,1.54-0.26,2.98-0.79,4.33s-1.29,2.53-2.29,3.53
				c-1,1-2.22,1.79-3.67,2.37c-1.45,0.58-3.1,0.87-4.97,0.87c-2.42,0-4.49-0.43-6.24-1.28c-1.74-0.85-3.27-2.02-4.58-3.5l0.72-1.14
				c0.21-0.26,0.45-0.39,0.72-0.39c0.16,0,0.35,0.1,0.6,0.31c0.24,0.21,0.54,0.46,0.88,0.76c0.34,0.3,0.76,0.63,1.24,0.98
				s1.04,0.68,1.68,0.98c0.64,0.3,1.37,0.56,2.2,0.76s1.77,0.31,2.82,0.31c1.45,0,2.75-0.22,3.89-0.66c1.14-0.44,2.1-1.04,2.89-1.8
				s1.39-1.66,1.8-2.7c0.41-1.04,0.62-2.16,0.62-3.35c0-1.29-0.26-2.36-0.79-3.2c-0.53-0.84-1.22-1.53-2.09-2.1
				c-0.86-0.56-1.84-1.03-2.94-1.41c-1.1-0.38-2.22-0.75-3.38-1.11c-1.16-0.36-2.29-0.77-3.38-1.22s-2.08-1.02-2.94-1.72
				c-0.86-0.7-1.56-1.57-2.09-2.61c-0.53-1.04-0.79-2.35-0.79-3.92c0-1.22,0.23-2.41,0.7-3.54c0.47-1.14,1.15-2.14,2.05-3.01
				s2.01-1.57,3.33-2.1c1.32-0.53,2.83-0.79,4.52-0.79c1.9,0,3.61,0.3,5.12,0.91c1.51,0.6,2.89,1.53,4.13,2.77L471.86,340.5z"/>
		</g>
		<g>
			<g>
				<path d="M114.12,274.34v1.1h-9.61v7.38h8v1.07h-8v7.61h9.61v1.1h-10.94v-18.25H114.12z"/>
				<path d="M127.26,276.56c-0.08,0.15-0.19,0.22-0.34,0.22c-0.11,0-0.26-0.08-0.43-0.24c-0.18-0.16-0.42-0.33-0.72-0.53
					c-0.3-0.19-0.68-0.37-1.13-0.54c-0.45-0.16-1.01-0.25-1.68-0.25c-0.66,0-1.25,0.09-1.75,0.28c-0.5,0.19-0.93,0.45-1.27,0.77
					c-0.34,0.33-0.6,0.71-0.78,1.14s-0.27,0.88-0.27,1.35c0,0.62,0.13,1.13,0.39,1.54s0.61,0.75,1.04,1.03
					c0.43,0.28,0.92,0.52,1.47,0.72s1.11,0.39,1.69,0.57c0.58,0.19,1.14,0.4,1.69,0.63c0.55,0.23,1.04,0.51,1.47,0.86
					s0.78,0.77,1.04,1.27s0.39,1.13,0.39,1.88c0,0.77-0.13,1.49-0.39,2.16c-0.26,0.67-0.64,1.26-1.14,1.76
					c-0.5,0.5-1.11,0.89-1.83,1.18s-1.55,0.43-2.48,0.43c-1.2,0-2.24-0.21-3.11-0.64s-1.63-1.01-2.28-1.75l0.36-0.57
					c0.1-0.13,0.22-0.19,0.36-0.19c0.08,0,0.18,0.05,0.3,0.15s0.27,0.23,0.44,0.38c0.17,0.15,0.38,0.31,0.62,0.49
					c0.24,0.18,0.52,0.34,0.84,0.49c0.32,0.15,0.68,0.28,1.1,0.38c0.41,0.1,0.88,0.16,1.41,0.16c0.72,0,1.37-0.11,1.94-0.33
					s1.05-0.52,1.44-0.9c0.39-0.38,0.69-0.83,0.9-1.35c0.21-0.52,0.31-1.08,0.31-1.67c0-0.64-0.13-1.18-0.39-1.59
					s-0.61-0.77-1.04-1.04c-0.43-0.28-0.92-0.51-1.47-0.7c-0.55-0.19-1.11-0.37-1.69-0.55c-0.58-0.18-1.14-0.38-1.69-0.61
					c-0.55-0.22-1.04-0.51-1.47-0.86s-0.78-0.78-1.04-1.3s-0.39-1.17-0.39-1.95c0-0.61,0.12-1.2,0.35-1.77
					c0.23-0.57,0.57-1.07,1.02-1.5c0.45-0.43,1-0.78,1.66-1.04c0.66-0.26,1.41-0.39,2.25-0.39c0.95,0,1.8,0.15,2.55,0.45
					s1.44,0.76,2.06,1.38L127.26,276.56z"/>
				<path d="M143.82,274.34v1.12h-6.41v17.13h-1.32v-17.13h-6.45v-1.12H143.82z"/>
				<path d="M162.35,283.46c0,1.41-0.21,2.68-0.63,3.81c-0.42,1.13-1.01,2.09-1.78,2.88c-0.77,0.79-1.68,1.4-2.75,1.82
					c-1.07,0.42-2.25,0.63-3.55,0.63h-6.66v-18.25h6.66c1.3,0,2.48,0.21,3.55,0.63c1.07,0.42,1.98,1.03,2.75,1.82
					c0.77,0.79,1.36,1.75,1.78,2.88C162.13,280.8,162.35,282.06,162.35,283.46z M160.98,283.46c0-1.27-0.18-2.41-0.53-3.41
					c-0.35-1-0.85-1.84-1.49-2.53c-0.64-0.69-1.41-1.21-2.32-1.57c-0.9-0.36-1.9-0.54-3.01-0.54h-5.33v16.11h5.33
					c1.1,0,2.1-0.18,3.01-0.54c0.9-0.36,1.67-0.89,2.32-1.57c0.64-0.69,1.14-1.53,1.49-2.53
					C160.8,285.88,160.98,284.74,160.98,283.46z"/>
			</g>
		</g>
		<g>
			<g>
				<path d="M154.46,193.31c-0.09-0.11-0.18-0.23-0.27-0.35c-0.09-0.12-0.16-0.23-0.23-0.36l-7.21-12.66
					c-0.06-0.12-0.08-0.21-0.07-0.28c0.01-0.07,0.05-0.16,0.11-0.26l0.47-0.79l15.67,9.35l-0.6,1l-13.36-7.97
					c-0.19-0.11-0.39-0.25-0.59-0.4l7.27,12.71c0.13,0.22,0.14,0.42,0.02,0.61l-0.11,0.18c-0.11,0.18-0.29,0.27-0.55,0.27
					l-14.75-0.21c0.23,0.11,0.44,0.22,0.64,0.34l13.36,7.97l-0.59,0.99l-15.67-9.35l0.46-0.78c0.06-0.1,0.12-0.18,0.18-0.23
					c0.06-0.05,0.15-0.08,0.29-0.08l14.67,0.18C153.9,193.21,154.18,193.25,154.46,193.31z"/>
				<path d="M176.71,172.27l-0.69,0.75c-0.08,0.09-0.17,0.14-0.27,0.15c-0.1,0.01-0.2,0-0.31-0.04l-5.37-1.97l-6.03,6.63l2.48,5.15
					c0.05,0.09,0.07,0.19,0.06,0.3c-0.01,0.11-0.05,0.21-0.13,0.3l-0.68,0.74l-8.48-17.8l0.88-0.97L176.71,172.27z M163.58,176.85
					l5.5-6.05l-9.33-3.44c-0.15-0.05-0.31-0.12-0.49-0.2c-0.18-0.08-0.36-0.17-0.56-0.26c0.11,0.18,0.22,0.36,0.31,0.53
					c0.1,0.17,0.18,0.33,0.26,0.48L163.58,176.85z"/>
				<path d="M186.93,152.59c0.85,1.12,1.45,2.26,1.8,3.41c0.35,1.15,0.46,2.27,0.33,3.37c-0.13,1.09-0.49,2.13-1.08,3.11
					c-0.59,0.98-1.41,1.87-2.44,2.65l-5.3,4.03l-11.06-14.52l5.3-4.03c1.03-0.79,2.1-1.33,3.21-1.65c1.1-0.31,2.2-0.38,3.29-0.22
					c1.09,0.17,2.14,0.57,3.16,1.21C185.14,150.59,186.08,151.47,186.93,152.59z M185.84,153.41c-0.77-1.01-1.6-1.81-2.48-2.39
					c-0.88-0.58-1.79-0.95-2.72-1.11c-0.93-0.16-1.86-0.11-2.8,0.15c-0.94,0.26-1.84,0.72-2.72,1.39l-4.24,3.23l9.76,12.82
					l4.24-3.23c0.88-0.67,1.56-1.42,2.06-2.25s0.8-1.72,0.89-2.65c0.09-0.94-0.02-1.91-0.35-2.91
					C187.17,155.45,186.62,154.43,185.84,153.41z"/>
				<path d="M199.15,135.64l0.5,0.98l-8.55,4.38l3.37,6.57l7.12-3.65l0.49,0.95l-7.12,3.65l3.47,6.77l8.55-4.38l0.5,0.98l-9.73,4.99
					l-8.33-16.24L199.15,135.64z"/>
				<path d="M213.75,129.58l1.07-0.22c0.24-0.05,0.42,0.03,0.54,0.25l7.52,13.77c0.09,0.16,0.17,0.33,0.24,0.52s0.16,0.38,0.24,0.58
					c0-0.22,0-0.43,0-0.63c0-0.2,0.02-0.39,0.04-0.57l2.05-15.73c0.01-0.1,0.06-0.19,0.13-0.28c0.07-0.08,0.16-0.14,0.28-0.16
					l0.35-0.07c0.12-0.02,0.22-0.01,0.31,0.04c0.09,0.05,0.16,0.12,0.23,0.21l8.06,13.66c0.09,0.16,0.18,0.32,0.27,0.5
					c0.08,0.18,0.17,0.36,0.25,0.57c0-0.21,0-0.41-0.01-0.61c0-0.2,0-0.38,0.02-0.56l1.5-15.62c0.01-0.1,0.05-0.19,0.12-0.27
					c0.07-0.09,0.17-0.14,0.29-0.16l0.99-0.2l-1.96,19.03l-1.16,0.24l-8.46-14.44c-0.11-0.19-0.21-0.39-0.31-0.61
					c0,0.24-0.02,0.46-0.04,0.68l-2.12,16.6l-1.15,0.24L213.75,129.58z"/>
				<path d="M248.61,142.78l-1.33,0.04l-0.59-18.24l1.33-0.04L248.61,142.78z"/>
				<path d="M270.08,125.64l-0.1,1.12l-6.38-0.57l-1.54,17.06l-1.31-0.12l1.54-17.06l-6.42-0.58l0.1-1.12L270.08,125.64z"/>
				<path d="M286.94,148.41l-1.28-0.35l2.3-8.44l-11.03-3.01l-2.3,8.44l-1.28-0.35l4.8-17.61l1.28,0.35l-2.24,8.21l11.03,3.01
					l2.24-8.21l1.28,0.35L286.94,148.41z"/>
				<path d="M301.96,153.85l7.59,4.17L309,159l-8.74-4.8l8.79-16l1.15,0.63L301.96,153.85z"/>
				<path d="M330.92,164.02c-0.87,1.11-1.83,1.99-2.87,2.63s-2.11,1.05-3.22,1.21c-1.1,0.17-2.21,0.1-3.32-0.21
					c-1.11-0.31-2.18-0.87-3.2-1.67c-1.01-0.79-1.79-1.69-2.36-2.7c-0.57-1.01-0.9-2.07-1-3.18s0.04-2.25,0.41-3.42
					c0.37-1.17,1-2.3,1.87-3.41c0.87-1.1,1.82-1.97,2.86-2.61c1.04-0.64,2.12-1.04,3.22-1.21c1.1-0.17,2.21-0.1,3.33,0.21
					c1.12,0.31,2.18,0.85,3.18,1.65c1.02,0.8,1.82,1.71,2.38,2.71c0.57,1.01,0.9,2.07,1,3.18s-0.04,2.25-0.42,3.42
					C332.41,161.78,331.79,162.92,330.92,164.02z M329.85,163.18c0.79-1,1.35-2.01,1.7-3.03c0.35-1.02,0.49-2,0.42-2.95
					s-0.34-1.85-0.82-2.7s-1.15-1.62-2.02-2.3c-0.85-0.67-1.75-1.13-2.69-1.39c-0.94-0.26-1.88-0.31-2.83-0.16
					c-0.95,0.15-1.87,0.52-2.78,1.1s-1.75,1.37-2.54,2.37c-0.79,1.01-1.36,2.02-1.7,3.03c-0.34,1.02-0.48,2-0.4,2.96
					c0.08,0.96,0.35,1.86,0.83,2.7c0.48,0.85,1.14,1.6,2,2.27c0.87,0.68,1.77,1.15,2.71,1.42c0.94,0.27,1.88,0.32,2.82,0.16
					c0.94-0.16,1.86-0.53,2.76-1.1C328.21,164.98,329.06,164.18,329.85,163.18z"/>
				<path d="M341.13,161.23l0.69,0.78c0.08,0.09,0.12,0.19,0.12,0.29c0,0.1-0.02,0.2-0.07,0.3l-7.23,14.69
					c-0.19,0.38-0.42,0.76-0.68,1.14c0.41-0.24,0.81-0.42,1.2-0.56l15.46-5.38c0.1-0.03,0.2-0.04,0.31-0.02s0.2,0.07,0.28,0.16
					l0.68,0.77l-18.67,6.45l-0.78-0.88L341.13,161.23z"/>
				<path d="M362.14,189.03l-0.93,0.58l-5.11-8.14l-6.25,3.92l4.25,6.77l-0.91,0.57l-4.25-6.77l-6.45,4.05l5.11,8.14l-0.93,0.58
					l-5.81-9.26l15.46-9.7L362.14,189.03z"/>
			</g>
		</g>
		<g>
			<g>
				<path d="M343.86,291.65h4.19v-14.82c0-0.29,0.01-0.6,0.04-0.93l-4.02,3.58c-0.09,0.08-0.19,0.12-0.31,0.12
					c-0.15,0-0.26-0.05-0.34-0.16l-0.37-0.52l5.28-4.66h0.95v17.39h3.99v0.94h-9.4V291.65z"/>
				<path d="M362.23,284.83c-0.75,0-1.44-0.12-2.07-0.37c-0.63-0.25-1.18-0.6-1.64-1.05c-0.46-0.46-0.82-1-1.08-1.64
					s-0.39-1.36-0.39-2.15c0-0.78,0.14-1.51,0.43-2.17c0.29-0.67,0.69-1.25,1.21-1.74c0.52-0.49,1.13-0.88,1.84-1.15
					c0.71-0.28,1.49-0.42,2.33-0.42c0.81,0,1.55,0.14,2.22,0.41c0.68,0.28,1.26,0.66,1.74,1.17c0.49,0.5,0.86,1.1,1.13,1.81
					s0.41,1.48,0.41,2.34c0,0.47-0.05,0.92-0.15,1.35c-0.1,0.43-0.25,0.86-0.44,1.29s-0.43,0.87-0.7,1.32s-0.59,0.94-0.94,1.45
					l-4.79,7.02c-0.13,0.2-0.34,0.3-0.63,0.3h-1.11l5.39-7.53c0.26-0.36,0.5-0.7,0.72-1.03c0.22-0.32,0.42-0.63,0.6-0.93
					c-0.5,0.55-1.1,0.98-1.81,1.28C363.79,284.68,363.04,284.83,362.23,284.83z M367.18,279.63c0-0.66-0.11-1.27-0.32-1.82
					c-0.22-0.55-0.52-1.02-0.9-1.41c-0.39-0.39-0.84-0.7-1.37-0.92c-0.53-0.22-1.11-0.33-1.73-0.33c-0.67,0-1.29,0.11-1.85,0.32
					s-1.04,0.52-1.44,0.9c-0.4,0.39-0.71,0.85-0.94,1.39s-0.33,1.13-0.33,1.77c0,0.67,0.1,1.28,0.31,1.81
					c0.21,0.54,0.5,0.99,0.87,1.37s0.83,0.66,1.35,0.86c0.53,0.2,1.12,0.3,1.76,0.3c0.73,0,1.38-0.12,1.95-0.37
					c0.57-0.25,1.06-0.58,1.45-0.98s0.69-0.86,0.9-1.36S367.18,280.15,367.18,279.63z"/>
				<path d="M377.28,292.8c-0.88,0-1.68-0.12-2.41-0.35c-0.73-0.23-1.35-0.57-1.87-1.01s-0.93-0.97-1.22-1.59s-0.44-1.32-0.44-2.09
					c0-0.67,0.1-1.27,0.29-1.79s0.47-0.98,0.82-1.37s0.77-0.71,1.26-0.97c0.49-0.26,1.02-0.45,1.61-0.58
					c-0.53-0.16-1.01-0.37-1.42-0.63c-0.41-0.27-0.76-0.58-1.04-0.96c-0.28-0.37-0.49-0.78-0.64-1.23s-0.22-0.94-0.22-1.45
					c0-0.65,0.12-1.25,0.37-1.82c0.25-0.57,0.6-1.06,1.05-1.48c0.46-0.42,1.01-0.75,1.66-0.99c0.65-0.24,1.38-0.36,2.2-0.36
					c0.81,0,1.54,0.12,2.19,0.36c0.65,0.24,1.2,0.57,1.66,0.99c0.46,0.42,0.81,0.92,1.06,1.48c0.25,0.57,0.37,1.17,0.37,1.82
					c0,0.52-0.07,1-0.22,1.45s-0.36,0.86-0.65,1.23c-0.28,0.37-0.63,0.69-1.04,0.96c-0.41,0.27-0.89,0.48-1.42,0.63
					c0.58,0.13,1.12,0.32,1.61,0.58c0.49,0.26,0.91,0.58,1.26,0.97s0.63,0.84,0.83,1.37c0.2,0.52,0.3,1.12,0.3,1.79
					c0,0.77-0.15,1.47-0.44,2.09s-0.7,1.15-1.22,1.59c-0.52,0.44-1.14,0.77-1.87,1.01C378.96,292.68,378.16,292.8,377.28,292.8z
					 M377.28,291.82c0.7,0,1.33-0.1,1.9-0.29c0.57-0.19,1.06-0.47,1.48-0.83c0.41-0.36,0.73-0.78,0.95-1.28s0.34-1.05,0.34-1.66
					c0-0.8-0.15-1.47-0.44-2c-0.29-0.53-0.67-0.96-1.12-1.28c-0.46-0.32-0.96-0.54-1.51-0.68c-0.55-0.13-1.08-0.2-1.6-0.2
					s-1.05,0.07-1.6,0.2c-0.55,0.13-1.05,0.36-1.51,0.68c-0.46,0.32-0.83,0.74-1.12,1.28c-0.29,0.53-0.44,1.2-0.44,2
					c0,0.61,0.11,1.17,0.33,1.66s0.54,0.93,0.95,1.28c0.41,0.36,0.9,0.63,1.48,0.83C375.95,291.72,376.58,291.82,377.28,291.82z
					 M377.28,282.61c0.7,0,1.3-0.11,1.81-0.32s0.94-0.49,1.27-0.85c0.33-0.36,0.58-0.76,0.74-1.22s0.24-0.93,0.24-1.42
					c0-0.52-0.09-1.01-0.27-1.46c-0.18-0.45-0.44-0.84-0.79-1.18c-0.35-0.33-0.77-0.6-1.28-0.79c-0.5-0.19-1.08-0.28-1.72-0.28
					c-0.64,0-1.22,0.09-1.73,0.28c-0.51,0.19-0.94,0.45-1.28,0.79c-0.35,0.34-0.61,0.73-0.79,1.18c-0.18,0.45-0.27,0.94-0.27,1.46
					c0,0.49,0.08,0.96,0.24,1.42s0.41,0.86,0.74,1.22c0.33,0.36,0.76,0.64,1.27,0.85S376.58,282.61,377.28,282.61z"/>
				<path d="M398.58,274.34v0.55c0,0.15-0.02,0.27-0.05,0.38s-0.07,0.2-0.11,0.28l-8.37,16.58c-0.07,0.14-0.16,0.25-0.28,0.33
					c-0.12,0.09-0.27,0.13-0.46,0.13h-0.84l8.42-16.51c0.11-0.22,0.25-0.43,0.4-0.61h-10.53c-0.09,0-0.17-0.03-0.24-0.1
					c-0.06-0.07-0.1-0.15-0.1-0.25v-0.79H398.58z"/>
			</g>
		</g>
		<g>
			<g>
				<path d="M360.15,217.07c6.43,12.18,6.85,27.85,5.23,41.14c-0.23,1.91,2.77,1.89,3,0c1.69-13.82,1.04-30.01-5.64-42.65
					C361.84,213.85,359.25,215.36,360.15,217.07L360.15,217.07z"/>
			</g>
		</g>
		<g>
			<g>
				<path d="M140.81,215.56c-6.67,12.64-7.33,28.84-5.64,42.65c0.23,1.89,3.23,1.92,3,0c-1.63-13.3-1.2-28.95,5.23-41.14
					C144.3,215.37,141.71,213.85,140.81,215.56L140.81,215.56z"/>
			</g>
		</g>
	</g>
</g>
<g id="DESIGNED_BY_FREEPIK">
	<g>
	</g>
	<g>
	</g>
	<g>
	</g>
	<g>
	</g>
	<g>
	</g>
	<g>
	</g>
</g>
</svg>
